<svg width="15" height="15" viewBox="0 0 15 15" fill="none" xmlns="http://www.w3.org/2000/svg">
<path id="Vector" d="M7.50167 3.60173C5.3734 3.60173 3.65672 5.29414 3.65672 7.39233C3.65672 9.49053 5.3734 11.1829 7.50167 11.1829C9.62995 11.1829 11.3466 9.49053 11.3466 7.39233C11.3466 5.29414 9.62995 3.60173 7.50167 3.60173ZM7.50167 9.85672C6.12633 9.85672 5.00195 8.75154 5.00195 7.39233C5.00195 6.03313 6.12298 4.92795 7.50167 4.92795C8.88037 4.92795 10.0014 6.03313 10.0014 7.39233C10.0014 8.75154 8.87702 9.85672 7.50167 9.85672ZM12.4007 3.44668C12.4007 3.93823 11.9992 4.33082 11.5039 4.33082C11.0053 4.33082 10.6071 3.93494 10.6071 3.44668C10.6071 2.95842 11.0086 2.56253 11.5039 2.56253C11.9992 2.56253 12.4007 2.95842 12.4007 3.44668ZM14.9473 4.34402C14.8904 3.15966 14.616 2.11056 13.7359 1.24621C12.8592 0.381864 11.795 0.111343 10.5937 0.0519599C9.35555 -0.01732 5.64445 -0.01732 4.4063 0.0519599C3.20831 0.108044 2.14417 0.378565 1.26408 1.24291C0.383993 2.10726 0.112939 3.15636 0.052705 4.34072C-0.0175683 5.56136 -0.0175683 9.22 0.052705 10.4406C0.109593 11.625 0.383993 12.6741 1.26408 13.5385C2.14417 14.4028 3.20496 14.6733 4.4063 14.7327C5.64445 14.802 9.35555 14.802 10.5937 14.7327C11.795 14.6766 12.8592 14.4061 13.7359 13.5385C14.6127 12.6741 14.8871 11.625 14.9473 10.4406C15.0176 9.22 15.0176 5.56466 14.9473 4.34402ZM13.3477 11.7504C13.0867 12.397 12.5814 12.8951 11.9222 13.1558C10.935 13.5418 8.59258 13.4527 7.50167 13.4527C6.41076 13.4527 4.06497 13.5385 3.08115 13.1558C2.42526 12.8984 1.91997 12.4003 1.65561 11.7504C1.26408 10.7772 1.35443 8.46782 1.35443 7.39233C1.35443 6.31685 1.26743 4.00422 1.65561 3.0343C1.91662 2.38768 2.42192 1.88953 3.08115 1.6289C4.06832 1.24291 6.41076 1.33199 7.50167 1.33199C8.59258 1.33199 10.9384 1.24621 11.9222 1.6289C12.5781 1.88623 13.0834 2.38438 13.3477 3.0343C13.7393 4.00751 13.6489 6.31685 13.6489 7.39233C13.6489 8.46782 13.7393 10.7805 13.3477 11.7504Z" fill="white"/>
</svg>
