<svg width="135" height="135" viewBox="0 0 135 135" fill="none" xmlns="http://www.w3.org/2000/svg">
<g id="satisfaction">
<circle id="Ellipse 3" cx="67.5" cy="67.5" r="67.5" fill="#BAA0B6"/>
<path id="Vector" d="M78.3562 54.2941L77.8575 56.7H80.3145H99.8182C102.108 56.7 104 58.589 104 60.9V67.1C104 67.6292 103.902 68.119 103.715 68.609L94.3935 90.4324L94.3896 90.4415L94.3858 90.4507C93.7608 91.955 92.2828 93 90.5455 93H62.7273C60.4374 93 58.5455 91.111 58.5455 88.8V57.8C58.5455 56.6375 59.0054 55.6025 59.7659 54.8604L59.7763 54.8503L59.7865 54.8401L78.715 35.8269L80.5673 37.6671C80.5683 37.6681 80.5692 37.669 80.5701 37.6699C81.0273 38.1299 81.3212 38.7728 81.3424 39.461L81.27 40.236L78.3562 54.2941ZM48.3636 59.8V93H40V59.8H48.3636Z" stroke="white" stroke-width="4"/>
</g>
</svg>
