<svg width="135" height="135" viewBox="0 0 135 135" fill="none" xmlns="http://www.w3.org/2000/svg">
<g id="shipping">
<circle id="Ellipse 2" cx="67.5" cy="67.5" r="67.5" fill="#BAA0B6"/>
<path id="Vector" d="M107 70.5V83.6875H102.091H100.091V85.6875C100.091 90.2799 96.3666 94 91.7273 94C87.088 94 83.3636 90.2799 83.3636 85.6875V83.6875H81.3636H60.6364H58.6364V85.6875C58.6364 90.2799 54.912 94 50.2727 94C45.6334 94 41.9091 90.2799 41.9091 85.6875V83.6875H39.9091H35V47.875C35 45.2076 37.2043 43 39.9091 43H86.2727V54.75V56.75H88.2727H97.6393L107 69.1693V69.4821L105.251 67.2622L98.4801 58.6685L97.8795 57.9062H96.9091H88.2727H86.2727V59.9062V68.5V70.5H88.2727H103.68H107ZM43.0909 85.6875C43.0909 89.6545 46.3102 92.8438 50.2727 92.8438C54.2352 92.8438 57.4545 89.6545 57.4545 85.6875C57.4545 81.7205 54.2352 78.5312 50.2727 78.5312C46.3102 78.5312 43.0909 81.7205 43.0909 85.6875ZM84.5455 85.6875C84.5455 89.6545 87.7648 92.8438 91.7273 92.8438C95.6898 92.8438 98.9091 89.6545 98.9091 85.6875C98.9091 81.7205 95.6898 78.5312 91.7273 78.5312C87.7648 78.5312 84.5455 81.7205 84.5455 85.6875Z" stroke="white" stroke-width="4"/>
</g>
</svg>
