<svg width="18" height="13" viewBox="0 0 18 13" fill="none" xmlns="http://www.w3.org/2000/svg">
<path id="Vector" d="M16.1498 3.22401C16.1612 3.3655 16.1612 3.50702 16.1612 3.6485C16.1612 7.96403 12.4493 12.9365 5.66499 12.9365C3.57488 12.9365 1.63326 12.4008 0 11.4711C0.296966 11.5014 0.582471 11.5115 0.890863 11.5115C2.61546 11.5115 4.20305 10.9961 5.47083 10.1168C3.84899 10.0864 2.48985 9.14653 2.02156 7.85287C2.25001 7.88317 2.47842 7.90339 2.71829 7.90339C3.0495 7.90339 3.38074 7.86295 3.6891 7.79224C1.99875 7.48901 0.730936 6.17516 0.730936 4.58842V4.54801C1.22204 4.79057 1.79315 4.94216 2.39844 4.96235C1.40478 4.37616 0.753788 3.37561 0.753788 2.24366C0.753788 1.63727 0.936496 1.0814 1.25631 0.596278C3.07232 2.57718 5.80203 3.87081 8.86293 4.01233C8.80583 3.76977 8.77155 3.51713 8.77155 3.26446C8.77155 1.46545 10.4162 0 12.4607 0C13.5228 0 14.4822 0.394159 15.1561 1.03088C15.9898 0.889392 16.7893 0.616499 17.4975 0.242562C17.2233 1.00058 16.6409 1.6373 15.8756 2.04154C16.618 1.97082 17.3376 1.78886 18 1.53622C17.4975 2.18302 16.8693 2.75908 16.1498 3.22401Z" fill="white"/>
</svg>
