<svg width="32" height="23" viewBox="0 0 32 23" fill="none" xmlns="http://www.w3.org/2000/svg">
<path id="Vector" d="M31 12.5V17.6875H29.0909H28.0909V18.6875C28.0909 20.5104 26.6007 22 24.7273 22C22.8539 22 21.3636 20.5104 21.3636 18.6875V17.6875H20.3636H11.6364H10.6364V18.6875C10.6364 20.5104 9.14613 22 7.27273 22C5.39932 22 3.90909 20.5104 3.90909 18.6875V17.6875H2.90909H1V2.875C1 1.85712 1.85023 1 2.90909 1H22.2727V5.75V6.75H23.2727H27.1399L27.2585 6.90625H26.9091H23.2727H22.2727V7.90625V11.5V12.5H23.2727H29.76H31ZM4.09091 18.6875C4.09091 20.444 5.52432 21.8438 7.27273 21.8438C9.02114 21.8438 10.4545 20.444 10.4545 18.6875C10.4545 16.931 9.02114 15.5312 7.27273 15.5312C5.52432 15.5312 4.09091 16.931 4.09091 18.6875ZM21.5455 18.6875C21.5455 20.444 22.9789 21.8438 24.7273 21.8438C26.4757 21.8438 27.9091 20.444 27.9091 18.6875C27.9091 16.931 26.4757 15.5312 24.7273 15.5312C22.9789 15.5312 21.5455 16.931 21.5455 18.6875Z" stroke="#CEB4CB" stroke-width="2"/>
</svg>
